<svg width="0" height="0" class="hidden">
  <symbol xmlns="http://www.w3.org/2000/svg" viewBox="0 0 24 24" id="stack">
    <g>
      <path fill="none" d="M0 0h24v24H0z"></path>
      <path d="M20.083 15.2l1.202.721a.5.5 0 0 1 0 .858l-8.77 5.262a1 1 0 0 1-1.03 0l-8.77-5.262a.5.5 0 0 1 0-.858l1.202-.721L12 20.05l8.083-4.85zm0-4.7l1.202.721a.5.5 0 0 1 0 .858L12 17.65l-9.285-5.571a.5.5 0 0 1 0-.858l1.202-.721L12 15.35l8.083-4.85zm-7.569-9.191l8.771 5.262a.5.5 0 0 1 0 .858L12 13 2.715 7.429a.5.5 0 0 1 0-.858l8.77-5.262a1 1 0 0 1 1.03 0zM12 3.332L5.887 7 12 10.668 18.113 7 12 3.332z"></path>
    </g>
  </symbol>
  <symbol xmlns="http://www.w3.org/2000/svg" viewBox="0 0 448 512" id="linkedin-brands">
    <path d="M416 32H31.9C14.3 32 0 46.5 0 64.3v383.4C0 465.5 14.3 480 31.9 480H416c17.6 0 32-14.5 32-32.3V64.3c0-17.8-14.4-32.3-32-32.3zM135.4 416H69V202.2h66.5V416zm-33.2-243c-21.3 0-38.5-17.3-38.5-38.5S80.9 96 102.2 96c21.2 0 38.5 17.3 38.5 38.5 0 21.3-17.2 38.5-38.5 38.5zm282.1 243h-66.4V312c0-24.8-.5-56.7-34.5-56.7-34.6 0-39.9 27-39.9 54.9V416h-66.4V202.2h63.7v29.2h.9c8.9-16.8 30.6-34.5 62.9-34.5 67.2 0 79.7 44.3 79.7 101.9V416z"></path>
  </symbol>
  <symbol xmlns="http://www.w3.org/2000/svg" viewBox="0 0 448 512" id="square-envelope-solid">
    <path d="M384 32H64C28.63 32 0 60.63 0 96v320c0 35.38 28.62 64 64 64h320c35.38 0 64-28.62 64-64V96C448 60.63 419.4 32 384 32zM384 336c0 17.67-14.33 32-32 32H96c-17.67 0-32-14.33-32-32V225.9l138.5 69.27C209.3 298.5 216.6 300.2 224 300.2s14.75-1.688 21.47-5.047L384 225.9V336zM384 190.1l-152.8 76.42c-4.5 2.25-9.812 2.25-14.31 0L64 190.1V176c0-17.67 14.33-32 32-32h256c17.67 0 32 14.33 32 32V190.1z"></path>
  </symbol>
  <symbol xmlns="http://www.w3.org/2000/svg" viewBox="0 0 448 512" id="square-twitter-brands">
    <path d="M400 32H48C21.5 32 0 53.5 0 80v352c0 26.5 21.5 48 48 48h352c26.5 0 48-21.5 48-48V80c0-26.5-21.5-48-48-48zm-48.9 158.8c.2 2.8.2 5.7.2 8.5 0 86.7-66 186.6-186.6 186.6-37.2 0-71.7-10.8-100.7-29.4 5.3.6 10.4.8 15.8.8 30.7 0 58.9-10.4 81.4-28-28.8-.6-53-19.5-61.3-45.5 10.1 1.5 19.2 1.5 29.6-1.2-30-6.1-52.5-32.5-52.5-64.4v-.8c8.7 4.9 18.9 7.9 29.6 8.3a65.447 65.447 0 0 1-29.2-54.6c0-12.2 3.2-23.4 8.9-33.1 32.3 39.8 80.8 65.8 135.2 68.6-9.3-44.5 24-80.6 64-80.6 18.9 0 35.9 7.9 47.9 20.7 14.8-2.8 29-8.3 41.6-15.8-4.9 15.2-15.2 28-28.8 36.1 13.2-1.4 26-5.1 37.8-10.2-8.9 13.1-20.1 24.7-32.9 34z"></path>
  </symbol>
</svg>